# xmcd
#
# Track frame offsets:
#	150
#	15315
#	34800
#	53120
#	66807
#	104695
#	126907
#	146105
#	171940
#	189527
#
# Disc length: 2749 seconds
#
# Revision: 1
# Processed by: cddbd v1.5.2PL0 Copyright (c) Steve Scherf et al.
# Submitted via: EZCDAudioConverter 3.1.7.1
#
DISCID=8f0abb0a
DTITLE=The Rowans
DYEAR=1975
DGENRE=Country
TTITLE0=Take It As It Comes
TTITLE1=Midnight Moonlight
TTITLE2=Me Loving You
TTITLE3=Old Silver
TTITLE4=Thunder On The Mountain
TTITLE5=Beggar In Blue Jeans
TTITLE6=Do Right
TTITLE7=Man Woman
TTITLE8=Pieces On The Ground
TTITLE9=Here Today Gone Tomorrow
EXTD=
EXTT0=
EXTT1=
EXTT2=
EXTT3=
EXTT4=
EXTT5=
EXTT6=
EXTT7=
EXTT8=
EXTT9=
PLAYORDER=
